# xmcd
#
# Track frame offsets: 
#        150
#        26232
#        37035
#        80019
#        95671
#        114671
#        127162
#        149381
#        160685
#        180672
#        194478
#        215719
#
# Disc length: 3063 seconds
#
# Revision: 0
# Processed by: cddbd v1.5.2PL0 Copyright (c) Steve Scherf et al.
# Submitted via: ExactAudioCopy v1.3
#
DISCID=b80bf50c
DTITLE=The Nighthawks - Times Four
DYEAR=1981
DGENRE=Harmonica Blues, Electric Blues, Rockabilly
TTITLE0=Come On (Let The Good Times Roll)
TTITLE1=Off The Wall
TTITLE2=Double Trouble
TTITLE3=Let A Woman Be A Woman
TTITLE4=All Your Fault
TTITLE5=What A Girl Can't Do
TTITLE6=You've Got To Move
TTITLE7=Claudette
TTITLE8=Mystery Train
TTITLE9=Back Seat Boogie
TTITLE10=How Many More Years
TTITLE11=Mind Your Own Business
EXTD=
EXTT0=
EXTT1=
EXTT2=
EXTT3=
EXTT4=
EXTT5=
EXTT6=
EXTT7=
EXTT8=
EXTT9=
EXTT10=
EXTT11=
PLAYORDER=
